PathFileType  4	(X/Y/Z) C:\Users\antoi\Documents\MyRepositories\mobilecap\ResultsAnalysis
DataRate	CameraRate	NumFrames	NumMarkers	Units	OrigDataRate	OrigDataStartFrame	OrigNumFrames
100.0	100.0	5	51	mm	100.0	79	156
Frame#	Time	r_knee			r_shank_antsup			r_ankle			r_calc			r_5meta			r_toe			L_knee			L_shank_antsup			L_ankle			L_calc			L_5meta			L_toe			r_sh2			r_sh3			r_sh4			L_sh2			L_sh3			r_thigh1			r_thigh2			r_thigh3			r_thigh4			r_thigh5			L_thigh1			L_thigh2			L_thigh3			L_thigh4			r.ASIS			r.PSIS			L.ASIS			L.PSIS			C7			R_Shoulder			L_Shoulder			R_Sternum			L_Sternum			R_humerus			R_elbow_med			R_elbow_lat			R_forearm			R_wrist_radius			R_wrist_ulna			L_humerus			L_elbow_med			L_elbow_lat			L_forearm			L_wrist_radius			L_wrist_ulna			R_HJC			L_HJC			R_HJC_reg			L_HJC_reg			
		X1	Y1	Z1	X2	Y2	Z2	X3	Y3	Z3	X4	Y4	Z4	X5	Y5	Z5	X6	Y6	Z6	X7	Y7	Z7	X8	Y8	Z8	X9	Y9	Z9	X10	Y10	Z10	X11	Y11	Z11	X12	Y12	Z12	X13	Y13	Z13	X14	Y14	Z14	X15	Y15	Z15	X16	Y16	Z16	X17	Y17	Z17	X18	Y18	Z18	X19	Y19	Z19	X20	Y20	Z20	X21	Y21	Z21	X22	Y22	Z22	X23	Y23	Z23	X24	Y24	Z24	X25	Y25	Z25	X26	Y26	Z26	X27	Y27	Z27	X28	Y28	Z28	X29	Y29	Z29	X30	Y30	Z30	X31	Y31	Z31	X32	Y32	Z32	X33	Y33	Z33	X34	Y34	Z34	X35	Y35	Z35	X36	Y36	Z36	X37	Y37	Z37	X38	Y38	Z38	X39	Y39	Z39	X40	Y40	Z40	X41	Y41	Z41	X42	Y42	Z42	X43	Y43	Z43	X44	Y44	Z44	X45	Y45	Z45	X46	Y46	Z46	X47	Y47	Z47	X48	Y48	Z48	X49	Y49	Z49	X50	Y50	Z50	X51	Y51	Z51	

79	0.78000000	597.30418	437.64812	-124.67726	543.75443	324.40311	-144.76109	296.49203	200.65222	-172.82377	242.18451	216.61890	-229.12463	319.63071	72.14585	-152.42457	359.78670	58.05345	-193.15172	800.13501	470.34120	-418.81496	852.15593	381.28014	-368.40028	835.97595	82.44394	-387.16694	787.79435	50.43761	-339.37406	962.83883	37.22270	-381.72123	992.77978	63.86688	-326.92183	456.53183	257.38089	-163.86218	502.92343	363.96174	-94.53246	406.42256	311.59785	-121.95274	808.34397	390.37020	-443.49565	823.44970	270.52395	-450.57103	754.17765	718.67936	-112.19357	741.06959	607.83658	-119.10686	684.82701	588.69851	-84.04076	648.11454	725.89198	-65.35257	632.87024	611.89607	-77.58133	811.90731	768.50407	-422.43257	844.84674	636.45354	-419.51362	706.09851	747.15059	-458.33014	740.63737	609.56043	-447.99214	798.97096	892.09968	-130.64009	622.95639	960.82944	-188.37804	808.05960	924.19306	-372.79939	619.26419	970.79366	-305.59020	709.08102	1406.70047	-310.79651	782.72306	1384.48728	-163.44873	743.35331	1353.22032	-467.58962	828.80628	1338.27026	-298.13710	825.04241	1330.24783	-341.85540	792.21267	1265.63070	-84.24919	668.77767	1087.46961	-85.18089	719.12967	1090.92486	-27.87388	765.70147	969.30886	-23.63546	794.48939	869.54776	-36.85767	767.61450	861.83093	-11.25769	716.12903	1204.98761	-523.51998	629.33793	1031.47714	-445.57795	614.06614	1045.21579	-517.33214	636.88622	953.01308	-559.23293	654.12990	822.59266	-566.19750	622.59002	822.72442	-572.50835	705.95089	832.44204	-163.73338	712.76076	852.55390	-351.90683	724.96976	840.74282	-166.65092	719.89699	854.40516	-327.32333	
80	0.79000000	617.75946	435.55548	-124.36049	562.20796	323.10980	-144.57826	311.19565	208.85252	-172.90199	258.47566	227.97268	-229.57644	327.53940	79.19852	-152.60430	366.75772	62.31657	-192.80858	804.26182	470.72866	-418.87124	854.95298	381.25183	-368.42223	836.36246	82.64328	-386.70220	787.86294	50.45174	-339.15347	962.97120	37.26066	-381.71143	992.83838	63.16378	-326.49023	472.72689	259.43598	-164.08060	522.40076	364.36694	-94.50359	424.35192	315.02097	-121.62043	811.29303	390.57034	-443.61985	825.45557	270.61196	-450.49161	766.24868	720.40321	-111.84678	756.49968	609.15138	-118.16809	700.68027	588.68543	-82.92683	659.68506	725.16416	-66.34424	647.87864	610.47914	-77.45801	821.30598	768.83489	-421.13939	851.99438	636.20159	-418.25489	715.53826	749.26524	-458.25923	747.74497	611.10746	-447.92774	808.12669	894.15319	-129.86020	632.67327	962.92636	-189.13560	818.93148	925.01687	-371.69189	629.93641	972.91908	-306.42327	719.70929	1408.06827	-313.45379	793.27416	1387.20845	-166.02800	753.91938	1353.51172	-469.60711	839.36478	1339.84925	-300.08802	835.73789	1331.51088	-343.78776	802.64131	1269.29090	-85.67916	676.61474	1092.68931	-82.98354	728.70565	1095.64278	-27.18600	773.50826	973.26614	-23.70361	800.50364	872.95366	-37.23579	773.97837	865.71315	-11.30850	728.02431	1204.79964	-524.89439	642.91289	1030.76291	-446.31320	627.88295	1043.93637	-518.25414	651.03539	951.90063	-559.68626	668.43728	821.51037	-566.22964	636.49932	821.75639	-572.45479	715.03408	834.58900	-163.29231	723.33187	853.91251	-351.47804	734.30811	842.31328	-166.48846	730.55847	855.98492	-326.92467	
81	0.80000000	638.29818	433.82954	-123.80761	580.98285	322.13027	-144.16582	326.71715	216.94916	-172.99699	275.45608	238.57749	-230.11131	337.26265	86.62884	-152.54711	375.48804	67.33793	-192.26115	808.36849	471.10706	-419.05443	857.53971	381.19547	-368.54882	836.71978	82.81024	-386.40035	787.90719	50.52394	-339.02455	963.07981	37.25057	-381.74047	992.90065	62.54791	-326.16532	489.53933	261.82549	-164.09308	542.09075	365.20859	-94.29995	442.71379	318.65232	-121.32884	814.29597	390.80181	-443.95550	827.58907	270.74627	-450.64196	778.14456	722.22768	-111.16390	771.82946	610.64001	-116.64226	716.40005	588.90658	-81.52739	671.13165	724.53328	-67.17865	662.82902	609.27874	-77.18501	830.54389	769.11780	-419.85934	859.11716	635.98635	-416.90531	725.05266	751.23037	-458.40880	755.04621	612.58708	-448.07461	817.09858	896.09092	-128.95919	642.16229	964.71518	-190.05870	829.66891	925.73834	-370.53918	640.36494	974.77462	-307.33864	730.21966	1409.21167	-315.88861	803.46578	1389.62995	-168.32011	764.50819	1353.78773	-471.44955	849.76407	1341.25521	-301.74231	846.31331	1332.59699	-345.45493	812.49322	1272.58975	-86.84726	684.16084	1097.49001	-80.91075	737.67947	1100.02268	-26.42918	780.84509	976.99378	-23.51482	806.27987	876.15977	-37.13898	780.03403	869.38076	-10.96680	739.86938	1204.64508	-526.19844	656.46149	1030.05325	-447.06899	641.72039	1042.67237	-519.17545	665.30205	950.80334	-560.14268	682.92894	820.48304	-566.19245	650.80038	820.65952	-572.38557	723.97202	836.53670	-162.87389	733.86384	855.06596	-351.06092	743.57238	843.61100	-166.24080	741.11693	857.35753	-326.48830	
82	0.81000000	658.84921	432.52917	-123.03939	600.06832	321.62180	-143.53091	343.05455	224.77510	-173.11333	292.99253	248.17896	-230.70298	349.06856	94.22436	-152.20098	386.34198	72.96689	-191.49263	812.49622	471.44476	-419.31722	860.00492	381.12960	-368.76326	837.06263	82.95402	-386.23593	787.94467	50.64687	-338.97813	963.15971	37.18090	-381.78913	992.98660	61.97517	-325.93126	506.94783	264.46844	-163.88078	561.96383	366.50700	-93.95317	461.47448	322.46524	-121.09476	817.37993	391.06105	-444.46056	829.86757	270.91945	-450.98017	789.82475	724.14800	-110.19248	786.99018	612.32793	-114.56262	731.89147	589.37592	-79.93067	682.44806	724.01801	-67.83849	677.65579	608.31780	-76.77994	839.62532	769.28914	-418.65223	866.16967	635.71798	-415.60436	734.63817	753.06590	-458.75569	762.44509	613.99166	-448.41183	825.92868	897.90200	-128.03850	651.46784	966.16423	-191.01813	840.22540	926.41214	-369.45667	650.54866	976.35031	-308.21547	740.60982	1410.17559	-318.12149	813.32798	1391.75330	-170.31519	775.14917	1354.01867	-473.12553	860.00765	1342.47078	-303.11465	856.78222	1333.50924	-346.84917	821.76593	1275.50654	-87.75980	691.44000	1101.82051	-79.17035	745.98266	1104.02217	-25.69745	787.59959	980.43378	-23.04396	811.72567	879.11016	-36.49551	785.63350	872.76485	-10.22676	751.70611	1204.47423	-527.41182	669.96989	1029.31706	-447.85973	655.58820	1041.38918	-520.09117	679.68285	949.67754	-560.60163	697.60197	819.50753	-566.07867	665.53781	819.37967	-572.27895	732.85050	838.25406	-162.50198	744.29993	856.05198	-350.67681	752.80186	844.62891	-165.99387	751.55117	858.54616	-326.10802	
83	0.82000000	679.37889	431.69801	-122.08186	619.49549	321.70351	-142.69976	360.22838	232.13839	-173.23933	311.02894	256.60352	-231.29733	363.06716	101.71451	-151.55837	399.52680	78.94486	-190.51342	816.62475	471.71849	-419.61626	862.42727	381.07000	-369.04354	837.40252	83.08709	-386.14968	787.99043	50.80485	-338.98470	963.21299	37.06295	-381.83860	993.10069	61.39608	-325.76600	524.95806	267.23658	-163.43849	582.02402	368.22578	-93.50445	480.63517	326.38807	-120.91331	820.50536	391.32441	-445.06658	832.23986	271.10512	-451.42383	801.26032	726.17144	-108.99636	801.92576	614.24803	-112.01686	747.10102	590.10932	-78.20109	693.63530	723.63851	-68.32085	692.31411	607.61086	-76.25285	848.52726	769.29936	-417.56634	873.08059	635.31838	-414.47589	744.23253	754.78383	-459.24321	769.81188	615.31610	-448.88392	834.65378	899.59715	-127.18840	660.62638	967.28926	-191.91615	850.55286	927.06033	-368.53755	660.49820	977.66007	-308.97605	750.88062	1411.01754	-320.16495	822.89515	1393.59373	-172.01226	785.86122	1354.19134	-474.63896	870.10439	1343.49641	-304.22154	867.16165	1334.26885	-347.97017	830.49382	1278.04547	-88.43590	698.47490	1105.66157	-77.91414	753.59120	1107.62138	-25.07291	793.69351	983.54199	-22.27141	816.73557	881.77292	-35.28805	790.61865	875.81522	-9.11987	763.57782	1204.25609	-528.51073	683.43531	1028.53291	-448.68785	669.50512	1040.06644	-520.99780	694.18047	948.50108	-561.06064	712.47803	818.61013	-565.91342	680.71364	817.91145	-572.12301	741.72434	839.74639	-162.18542	754.57834	856.89899	-350.33822	762.00749	845.39343	-165.81985	761.83938	859.57288	-325.85594	
